<svg width="168" height="222" viewBox="0 0 168 222" fill="none" xmlns="http://www.w3.org/2000/svg">
<g clip-path="url(#clip0_3210_627)">
<circle cx="80.9344" cy="78.4817" r="66.219" stroke="white" stroke-width="17.1679"/>
<path fill-rule="evenodd" clip-rule="evenodd" d="M88.7382 82.8172C91.1326 80.4228 95.0148 80.4228 97.4093 82.8172L97.526 82.9339C99.9204 85.3284 99.9204 89.2106 97.526 91.605L94.0575 95.0734C91.6631 97.4679 87.7809 97.4679 85.3865 95.0734L85.2698 94.9567C82.8753 92.5623 82.8753 88.6801 85.2698 86.2857L88.7382 82.8172ZM99.7229 93.8021C102.117 91.4076 106 91.4076 108.394 93.8021L151.717 137.125C152.547 137.955 153.089 138.962 153.343 140.025C153.591 140.301 153.784 140.64 153.894 141.036L156.794 151.404C157.308 153.246 155.663 154.919 153.839 154.409L143.47 151.51C143.029 151.387 142.658 151.158 142.368 150.864C141.346 150.599 140.378 150.066 139.578 149.265L96.2545 105.942C93.86 103.547 93.86 99.665 96.2545 97.2705L99.7229 93.8021Z" fill="#FF611A"/>
<path d="M42.4667 207.607C42.4667 209.552 42.098 211.207 41.3606 212.571C40.629 213.936 39.6303 214.978 38.3646 215.698C37.1046 216.412 35.6879 216.769 34.1144 216.769C32.5293 216.769 31.1068 216.409 29.8468 215.689C28.5869 214.969 27.5911 213.927 26.8595 212.563C26.1279 211.198 25.7621 209.546 25.7621 207.607C25.7621 205.662 26.1279 204.007 26.8595 202.643C27.5911 201.278 28.5869 200.239 29.8468 199.525C31.1068 198.805 32.5293 198.445 34.1144 198.445C35.6879 198.445 37.1046 198.805 38.3646 199.525C39.6303 200.239 40.629 201.278 41.3606 202.643C42.098 204.007 42.4667 205.662 42.4667 207.607ZM38.6433 207.607C38.6433 206.347 38.4546 205.285 38.0771 204.42C37.7056 203.554 37.1801 202.898 36.5008 202.451C35.8214 202.004 35.026 201.781 34.1144 201.781C33.2028 201.781 32.4074 202.004 31.728 202.451C31.0487 202.898 30.5203 203.554 30.1429 204.42C29.7713 205.285 29.5855 206.347 29.5855 207.607C29.5855 208.867 29.7713 209.93 30.1429 210.795C30.5203 211.66 31.0487 212.316 31.728 212.763C32.4074 213.21 33.2028 213.434 34.1144 213.434C35.026 213.434 35.8214 213.21 36.5008 212.763C37.1801 212.316 37.7056 211.66 38.0771 210.795C38.4546 209.93 38.6433 208.867 38.6433 207.607ZM45.1905 216.526V203.148H48.7875V205.482H48.9268C49.1707 204.652 49.58 204.025 50.1549 203.601C50.7297 203.171 51.3916 202.956 52.1406 202.956C52.3264 202.956 52.5267 202.968 52.7415 202.991C52.9564 203.014 53.1451 203.046 53.3076 203.087V206.379C53.1335 206.327 52.8925 206.28 52.5848 206.24C52.277 206.199 51.9954 206.179 51.74 206.179C51.1942 206.179 50.7064 206.298 50.2768 206.536C49.8529 206.768 49.5162 207.093 49.2665 207.511C49.0226 207.929 48.9007 208.411 48.9007 208.957V216.526H45.1905ZM55.2955 216.526V198.689H59.0057V205.395H59.119C59.2815 205.035 59.5167 204.669 59.8244 204.298C60.138 203.92 60.5444 203.607 61.0437 203.357C61.5489 203.101 62.1759 202.974 62.9249 202.974C63.9004 202.974 64.8004 203.229 65.6248 203.74C66.4493 204.245 67.1083 205.009 67.6019 206.031C68.0954 207.047 68.3422 208.321 68.3422 209.854C68.3422 211.346 68.1012 212.606 67.6193 213.634C67.1432 214.656 66.4929 215.431 65.6684 215.959C64.8497 216.482 63.9323 216.743 62.9162 216.743C62.1963 216.743 61.5837 216.624 61.0786 216.386C60.5792 216.148 60.1699 215.849 59.8505 215.489C59.5312 215.123 59.2873 214.755 59.119 214.383H58.9535V216.526H55.2955ZM58.9274 209.837C58.9274 210.632 59.0377 211.326 59.2583 211.918C59.4789 212.51 59.7983 212.972 60.2163 213.303C60.6344 213.628 61.1424 213.791 61.7405 213.791C62.3443 213.791 62.8553 213.625 63.2733 213.294C63.6914 212.958 64.0078 212.493 64.2226 211.901C64.4433 211.303 64.5536 210.615 64.5536 209.837C64.5536 209.064 64.4462 208.385 64.2313 207.799C64.0165 207.212 63.7001 206.754 63.282 206.423C62.864 206.092 62.3501 205.926 61.7405 205.926C61.1366 205.926 60.6257 206.086 60.2076 206.405C59.7954 206.725 59.4789 207.177 59.2583 207.764C59.0377 208.35 58.9274 209.041 58.9274 209.837ZM70.8178 216.526V203.148H74.528V216.526H70.8178ZM72.6816 201.423C72.13 201.423 71.6568 201.241 71.262 200.875C70.873 200.503 70.6785 200.059 70.6785 199.542C70.6785 199.031 70.873 198.593 71.262 198.227C71.6568 197.856 72.13 197.67 72.6816 197.67C73.2332 197.67 73.7035 197.856 74.0925 198.227C74.4873 198.593 74.6848 199.031 74.6848 199.542C74.6848 200.059 74.4873 200.503 74.0925 200.875C73.7035 201.241 73.2332 201.423 72.6816 201.423ZM84.6156 203.148V205.935H76.5594V203.148H84.6156ZM78.3884 199.943H82.0986V212.415C82.0986 212.757 82.1509 213.024 82.2554 213.216C82.3599 213.402 82.505 213.532 82.6908 213.608C82.8824 213.683 83.1031 213.721 83.3527 213.721C83.5269 213.721 83.7011 213.707 83.8753 213.678C84.0495 213.643 84.183 213.617 84.2759 213.599L84.8595 216.36C84.6737 216.418 84.4124 216.485 84.0756 216.56C83.7389 216.642 83.3295 216.691 82.8476 216.708C81.9534 216.743 81.1696 216.624 80.4961 216.351C79.8284 216.078 79.3087 215.655 78.9371 215.08C78.5655 214.505 78.3826 213.779 78.3884 212.902V199.943ZM90.8471 216.778C89.9936 216.778 89.233 216.63 88.5653 216.334C87.8976 216.032 87.3692 215.588 86.9802 215.001C86.597 214.409 86.4054 213.672 86.4054 212.789C86.4054 212.046 86.5418 211.422 86.8147 210.917C87.0876 210.412 87.4592 210.005 87.9295 209.697C88.3998 209.39 88.934 209.157 89.532 209.001C90.1359 208.844 90.7688 208.734 91.4307 208.67C92.2087 208.588 92.8358 208.513 93.3119 208.443C93.788 208.368 94.1335 208.257 94.3483 208.112C94.5631 207.967 94.6706 207.752 94.6706 207.468V207.416C94.6706 206.864 94.4964 206.437 94.148 206.135C93.8054 205.833 93.3177 205.682 92.6848 205.682C92.0171 205.682 91.4858 205.83 91.091 206.127C90.6962 206.417 90.4349 206.783 90.3072 207.224L86.8757 206.945C87.0499 206.132 87.3924 205.43 87.9034 204.838C88.4143 204.24 89.0733 203.781 89.8804 203.461C90.6933 203.136 91.6339 202.974 92.7022 202.974C93.4454 202.974 94.1567 203.061 94.836 203.235C95.5212 203.409 96.1279 203.679 96.6563 204.045C97.1905 204.411 97.6114 204.881 97.9191 205.456C98.2269 206.025 98.3807 206.707 98.3807 207.503V216.526H94.8622V214.67H94.7576C94.5428 215.088 94.2554 215.457 93.8954 215.777C93.5354 216.09 93.1029 216.337 92.5977 216.517C92.0926 216.691 91.5091 216.778 90.8471 216.778ZM91.9097 214.218C92.4555 214.218 92.9374 214.11 93.3554 213.895C93.7735 213.675 94.1015 213.379 94.3396 213.007C94.5777 212.635 94.6967 212.214 94.6967 211.744V210.324C94.5806 210.4 94.4209 210.47 94.2177 210.533C94.0203 210.592 93.7967 210.647 93.547 210.699C93.2974 210.745 93.0477 210.789 92.798 210.83C92.5484 210.864 92.3219 210.896 92.1187 210.925C91.6832 210.989 91.3029 211.091 90.9778 211.23C90.6526 211.37 90.4001 211.558 90.2201 211.796C90.0401 212.029 89.9501 212.319 89.9501 212.667C89.9501 213.172 90.133 213.559 90.4988 213.826C90.8704 214.087 91.3407 214.218 91.9097 214.218ZM104.969 198.689V216.526H101.259V198.689H104.969Z" fill="white"/>
<path d="M117.459 198.689V216.526H113.687V198.689H117.459ZM127.294 210.324H130.499L132.11 212.397L133.695 214.244L136.682 217.989H133.164L131.108 215.463L130.054 213.965L127.294 210.324ZM136.952 207.607C136.952 209.552 136.584 211.207 135.846 212.571C135.115 213.936 134.116 214.978 132.85 215.698C131.59 216.412 130.174 216.769 128.6 216.769C127.015 216.769 125.592 216.409 124.332 215.689C123.072 214.969 122.077 213.927 121.345 212.563C120.614 211.198 120.248 209.546 120.248 207.607C120.248 205.662 120.614 204.007 121.345 202.643C122.077 201.278 123.072 200.239 124.332 199.525C125.592 198.805 127.015 198.445 128.6 198.445C130.174 198.445 131.59 198.805 132.85 199.525C134.116 200.239 135.115 201.278 135.846 202.643C136.584 204.007 136.952 205.662 136.952 207.607ZM133.129 207.607C133.129 206.347 132.94 205.285 132.563 204.42C132.191 203.554 131.666 202.898 130.986 202.451C130.307 202.004 129.512 201.781 128.6 201.781C127.688 201.781 126.893 202.004 126.214 202.451C125.534 202.898 125.006 203.554 124.629 204.42C124.257 205.285 124.071 206.347 124.071 207.607C124.071 208.867 124.257 209.93 124.629 210.795C125.006 211.66 125.534 212.316 126.214 212.763C126.893 213.21 127.688 213.434 128.6 213.434C129.512 213.434 130.307 213.21 130.986 212.763C131.666 212.316 132.191 211.66 132.563 210.795C132.94 209.93 133.129 208.867 133.129 207.607Z" fill="#FF611A"/>
</g>
<defs>
<clipPath id="clip0_3210_627">
<rect width="168" height="222" fill="white"/>
</clipPath>
</defs>
</svg>
